<svg xmlns="http://www.w3.org/2000/svg" viewBox="0 0 152 176" width="152" height="176"><defs><linearGradient id="bg" x1="0" y1="0" x2="1" y2="1"><stop offset="0" stop-color="#553A7A"/><stop offset=".55" stop-color="#181122"/><stop offset="1" stop-color="#0B0A08"/></linearGradient><radialGradient id="glow" cx="76" cy="86" r="62" gradientUnits="userSpaceOnUse"><stop offset="0" stop-color="#8660B4" stop-opacity=".75"/><stop offset=".6" stop-color="#8660B4" stop-opacity=".22"/><stop offset="1" stop-color="#8660B4" stop-opacity="0"/></radialGradient><linearGradient id="emb" gradientUnits="userSpaceOnUse" x1="0" y1="0" x2="0" y2="100"><stop offset="0" stop-color="#FBF7EE"/><stop offset=".45" stop-color="#F4EEE1"/><stop offset="1" stop-color="#D9CAEA"/></linearGradient><linearGradient id="embC" x1="0" y1="0" x2="0" y2="1"><stop offset="0" stop-color="#FBF7EE"/><stop offset="1" stop-color="#D9CAEA"/></linearGradient><linearGradient id="fadeTR" x1="1" y1="0" x2="0" y2="1"><stop offset="0" stop-color="#fff"/><stop offset=".5" stop-color="#fff" stop-opacity="0"/></linearGradient><mask id="mTR"><rect width="152" height="176" fill="url(#fadeTR)"/></mask><pattern id="px" width="9" height="9" patternUnits="userSpaceOnUse"><rect x="3" y="3" width="2.5" height="2.5" fill="#fff"/></pattern><pattern id="scan" width="4" height="3" patternUnits="userSpaceOnUse"><rect width="4" height="1" fill="#000"/></pattern><clipPath id="card"><rect x="4" y="4" width="144" height="168" rx="14"/></clipPath><filter id="sh" x="-25%" y="-25%" width="150%" height="150%"><feDropShadow dx="0" dy="3" stdDeviation="2.6" flood-color="#000" flood-opacity=".6"/></filter></defs><g clip-path="url(#card)"><rect width="152" height="176" fill="url(#bg)"/><circle cx="76" cy="86" r="66" fill="url(#glow)"/><rect width="152" height="176" fill="url(#px)" opacity=".09" mask="url(#mTR)"/><rect x="4" y="4" width="144" height="3" fill="#8660B4" opacity="0.85"/><circle cx="76" cy="86" r="50" fill="none" stroke="#F5EFE2" stroke-opacity=".30" stroke-width="1.4"/><circle cx="76" cy="86" r="43" fill="none" stroke="#F5EFE2" stroke-opacity=".12" stroke-width="1" stroke-dasharray="2 4"/><path d="M76.0 34.0 L76.0 28.0" stroke="#F5EFE2" stroke-opacity="0.55" stroke-width="1.6"/><path d="M82.8 34.4 L83.2 31.5" stroke="#F5EFE2" stroke-opacity="0.22" stroke-width="1"/><path d="M89.5 35.8 L90.2 32.9" stroke="#F5EFE2" stroke-opacity="0.22" stroke-width="1"/><path d="M95.9 38.0 L97.0 35.2" stroke="#F5EFE2" stroke-opacity="0.22" stroke-width="1"/><path d="M102.0 41.0 L103.5 38.4" stroke="#F5EFE2" stroke-opacity="0.22" stroke-width="1"/><path d="M107.7 44.7 L109.5 42.4" stroke="#F5EFE2" stroke-opacity="0.22" stroke-width="1"/><path d="M112.8 49.2 L117.0 45.0" stroke="#F5EFE2" stroke-opacity="0.55" stroke-width="1.6"/><path d="M117.3 54.3 L119.6 52.5" stroke="#F5EFE2" stroke-opacity="0.22" stroke-width="1"/><path d="M121.0 60.0 L123.6 58.5" stroke="#F5EFE2" stroke-opacity="0.22" stroke-width="1"/><path d="M124.0 66.1 L126.8 65.0" stroke="#F5EFE2" stroke-opacity="0.22" stroke-width="1"/><path d="M126.2 72.5 L129.1 71.8" stroke="#F5EFE2" stroke-opacity="0.22" stroke-width="1"/><path d="M127.6 79.2 L130.5 78.8" stroke="#F5EFE2" stroke-opacity="0.22" stroke-width="1"/><path d="M128.0 86.0 L134.0 86.0" stroke="#F5EFE2" stroke-opacity="0.55" stroke-width="1.6"/><path d="M127.6 92.8 L130.5 93.2" stroke="#F5EFE2" stroke-opacity="0.22" stroke-width="1"/><path d="M126.2 99.5 L129.1 100.2" stroke="#F5EFE2" stroke-opacity="0.22" stroke-width="1"/><path d="M124.0 105.9 L126.8 107.0" stroke="#F5EFE2" stroke-opacity="0.22" stroke-width="1"/><path d="M121.0 112.0 L123.6 113.5" stroke="#F5EFE2" stroke-opacity="0.22" stroke-width="1"/><path d="M117.3 117.7 L119.6 119.5" stroke="#F5EFE2" stroke-opacity="0.22" stroke-width="1"/><path d="M112.8 122.8 L117.0 127.0" stroke="#F5EFE2" stroke-opacity="0.55" stroke-width="1.6"/><path d="M107.7 127.3 L109.5 129.6" stroke="#F5EFE2" stroke-opacity="0.22" stroke-width="1"/><path d="M102.0 131.0 L103.5 133.6" stroke="#F5EFE2" stroke-opacity="0.22" stroke-width="1"/><path d="M95.9 134.0 L97.0 136.8" stroke="#F5EFE2" stroke-opacity="0.22" stroke-width="1"/><path d="M89.5 136.2 L90.2 139.1" stroke="#F5EFE2" stroke-opacity="0.22" stroke-width="1"/><path d="M82.8 137.6 L83.2 140.5" stroke="#F5EFE2" stroke-opacity="0.22" stroke-width="1"/><path d="M76.0 138.0 L76.0 144.0" stroke="#F5EFE2" stroke-opacity="0.55" stroke-width="1.6"/><path d="M69.2 137.6 L68.8 140.5" stroke="#F5EFE2" stroke-opacity="0.22" stroke-width="1"/><path d="M62.5 136.2 L61.8 139.1" stroke="#F5EFE2" stroke-opacity="0.22" stroke-width="1"/><path d="M56.1 134.0 L55.0 136.8" stroke="#F5EFE2" stroke-opacity="0.22" stroke-width="1"/><path d="M50.0 131.0 L48.5 133.6" stroke="#F5EFE2" stroke-opacity="0.22" stroke-width="1"/><path d="M44.3 127.3 L42.5 129.6" stroke="#F5EFE2" stroke-opacity="0.22" stroke-width="1"/><path d="M39.2 122.8 L35.0 127.0" stroke="#F5EFE2" stroke-opacity="0.55" stroke-width="1.6"/><path d="M34.7 117.7 L32.4 119.5" stroke="#F5EFE2" stroke-opacity="0.22" stroke-width="1"/><path d="M31.0 112.0 L28.4 113.5" stroke="#F5EFE2" stroke-opacity="0.22" stroke-width="1"/><path d="M28.0 105.9 L25.2 107.0" stroke="#F5EFE2" stroke-opacity="0.22" stroke-width="1"/><path d="M25.8 99.5 L22.9 100.2" stroke="#F5EFE2" stroke-opacity="0.22" stroke-width="1"/><path d="M24.4 92.8 L21.5 93.2" stroke="#F5EFE2" stroke-opacity="0.22" stroke-width="1"/><path d="M24.0 86.0 L18.0 86.0" stroke="#F5EFE2" stroke-opacity="0.55" stroke-width="1.6"/><path d="M24.4 79.2 L21.5 78.8" stroke="#F5EFE2" stroke-opacity="0.22" stroke-width="1"/><path d="M25.8 72.5 L22.9 71.8" stroke="#F5EFE2" stroke-opacity="0.22" stroke-width="1"/><path d="M28.0 66.1 L25.2 65.0" stroke="#F5EFE2" stroke-opacity="0.22" stroke-width="1"/><path d="M31.0 60.0 L28.4 58.5" stroke="#F5EFE2" stroke-opacity="0.22" stroke-width="1"/><path d="M34.7 54.3 L32.4 52.5" stroke="#F5EFE2" stroke-opacity="0.22" stroke-width="1"/><path d="M39.2 49.2 L35.0 45.0" stroke="#F5EFE2" stroke-opacity="0.55" stroke-width="1.6"/><path d="M44.3 44.7 L42.5 42.4" stroke="#F5EFE2" stroke-opacity="0.22" stroke-width="1"/><path d="M50.0 41.0 L48.5 38.4" stroke="#F5EFE2" stroke-opacity="0.22" stroke-width="1"/><path d="M56.1 38.0 L55.0 35.2" stroke="#F5EFE2" stroke-opacity="0.22" stroke-width="1"/><path d="M62.5 35.8 L61.8 32.9" stroke="#F5EFE2" stroke-opacity="0.22" stroke-width="1"/><path d="M69.2 34.4 L68.8 31.5" stroke="#F5EFE2" stroke-opacity="0.22" stroke-width="1"/><path d="M23.2 55.5 A61 61 0 0 1 128.8 55.5" fill="none" stroke="#F2A33C" stroke-opacity=".55" stroke-width="1.6" stroke-dasharray="1 3"/><path d="M12 25 L12 12 L25 12" fill="none" stroke="#F2A33C" stroke-opacity=".7" stroke-width="2"/><path d="M140 25 L140 12 L127 12" fill="none" stroke="#F2A33C" stroke-opacity=".7" stroke-width="2"/><path d="M12 151 L12 164 L25 164" fill="none" stroke="#F2A33C" stroke-opacity=".7" stroke-width="2"/><path d="M140 151 L140 164 L127 164" fill="none" stroke="#F2A33C" stroke-opacity=".7" stroke-width="2"/><g filter="url(#sh)"><g transform="translate(29.0 39.0) scale(0.94)" ><path d="M90.3 0.0 L91.9 0.0 L91.9 1.6 L83.7 6.2 L79.1 10.9 L75.6 17.8 L76.0 24.0 L78.7 27.1 L83.3 29.1 L83.3 30.6 L79.8 31.0 L72.5 34.1 L68.2 38.0 L66.7 40.7 L66.3 45.3 L67.4 47.7 L70.5 50.4 L70.5 51.9 L67.4 51.9 L62.8 53.1 L59.7 54.7 L56.6 57.8 L55.8 59.3 L55.8 61.6 L57.4 64.7 L59.3 66.3 L59.3 67.8 L54.3 66.7 L50.0 66.7 L46.9 68.2 L45.0 71.3 L45.3 73.6 L47.7 76.4 L54.3 79.1 L62.8 79.1 L66.3 78.3 L69.8 77.1 L77.1 72.9 L82.9 66.7 L85.3 61.2 L85.3 55.0 L82.2 55.0 L82.2 53.5 L83.3 51.9 L85.3 45.7 L84.9 36.0 L86.4 36.0 L89.5 39.9 L92.2 45.7 L93.4 51.9 L93.4 57.0 L91.9 57.0 L90.7 55.8 L90.3 56.2 L89.9 59.3 L87.2 65.9 L80.2 74.0 L75.2 77.5 L65.9 81.4 L60.5 82.9 L58.5 82.9 L58.1 81.8 L56.2 81.8 L51.9 82.6 L47.3 84.5 L45.0 86.0 L41.5 89.5 L41.1 90.7 L41.5 91.1 L48.1 86.8 L49.6 86.8 L49.6 88.0 L50.8 88.4 L50.8 89.9 L45.0 91.9 L39.5 94.6 L31.8 100.0 L30.2 100.0 L31.0 93.4 L33.7 91.9 L35.3 89.1 L34.9 85.7 L32.2 82.2 L29.5 81.0 L25.2 81.0 L21.7 82.6 L19.4 84.9 L14.0 84.1 L13.6 81.0 L11.6 81.0 L8.1 82.9 L6.6 82.9 L6.6 81.0 L8.5 77.9 L14.3 71.7 L20.5 68.2 L23.3 67.8 L26.0 65.9 L31.8 65.1 L38.0 62.8 L41.1 60.1 L41.5 58.5 L44.2 56.2 L45.7 53.9 L46.5 50.0 L45.3 46.1 L42.6 43.4 L39.1 42.2 L36.0 42.6 L32.9 44.2 L31.0 46.5 L30.6 49.6 L29.1 49.6 L28.7 47.7 L27.9 47.3 L25.6 50.0 L24.8 51.9 L23.3 51.9 L23.3 49.6 L25.6 45.3 L24.8 44.2 L22.1 45.0 L19.4 48.1 L17.8 48.1 L17.8 46.5 L19.0 44.2 L22.5 40.3 L25.2 38.8 L28.3 38.0 L29.1 34.9 L36.8 31.4 L53.5 16.7 L64.0 9.3 L75.2 3.9 L81.0 1.9 Z" fill="url(#emb)" fill-rule="evenodd"/></g></g><rect width="152" height="176" fill="url(#scan)" opacity=".16"/></g><rect x="4" y="4" width="144" height="168" rx="14" fill="none" stroke="#F5EFE2" stroke-opacity=".55" stroke-width="3"/><rect x="1.5" y="1.5" width="149" height="173" rx="16.5" fill="none" stroke="#000" stroke-opacity=".7" stroke-width="2.5"/></svg>