<svg xmlns="http://www.w3.org/2000/svg" viewBox="0 0 152 176" width="152" height="176"><defs><linearGradient id="bg" x1="0" y1="0" x2="1" y2="1"><stop offset="0" stop-color="#2E587C"/><stop offset=".55" stop-color="#0E1A26"/><stop offset="1" stop-color="#0B0A08"/></linearGradient><radialGradient id="glow" cx="76" cy="86" r="62" gradientUnits="userSpaceOnUse"><stop offset="0" stop-color="#4F88B6" stop-opacity=".75"/><stop offset=".6" stop-color="#4F88B6" stop-opacity=".22"/><stop offset="1" stop-color="#4F88B6" stop-opacity="0"/></radialGradient><linearGradient id="emb" gradientUnits="userSpaceOnUse" x1="0" y1="0" x2="0" y2="100"><stop offset="0" stop-color="#FBF7EE"/><stop offset=".45" stop-color="#F4EEE1"/><stop offset="1" stop-color="#C8DBEA"/></linearGradient><linearGradient id="embC" x1="0" y1="0" x2="0" y2="1"><stop offset="0" stop-color="#FBF7EE"/><stop offset="1" stop-color="#C8DBEA"/></linearGradient><linearGradient id="fadeTR" x1="1" y1="0" x2="0" y2="1"><stop offset="0" stop-color="#fff"/><stop offset=".5" stop-color="#fff" stop-opacity="0"/></linearGradient><mask id="mTR"><rect width="152" height="176" fill="url(#fadeTR)"/></mask><pattern id="px" width="9" height="9" patternUnits="userSpaceOnUse"><rect x="3" y="3" width="2.5" height="2.5" fill="#fff"/></pattern><pattern id="scan" width="4" height="3" patternUnits="userSpaceOnUse"><rect width="4" height="1" fill="#000"/></pattern><clipPath id="card"><rect x="4" y="4" width="144" height="168" rx="14"/></clipPath><filter id="sh" x="-25%" y="-25%" width="150%" height="150%"><feDropShadow dx="0" dy="3" stdDeviation="2.6" flood-color="#000" flood-opacity=".6"/></filter></defs><g clip-path="url(#card)"><rect width="152" height="176" fill="url(#bg)"/><circle cx="76" cy="86" r="66" fill="url(#glow)"/><rect width="152" height="176" fill="url(#px)" opacity=".09" mask="url(#mTR)"/><rect x="4" y="4" width="144" height="3" fill="#4F88B6" opacity="0.85"/><circle cx="76" cy="86" r="50" fill="none" stroke="#F5EFE2" stroke-opacity=".30" stroke-width="1.4"/><circle cx="76" cy="86" r="43" fill="none" stroke="#F5EFE2" stroke-opacity=".12" stroke-width="1" stroke-dasharray="2 4"/><path d="M76.0 34.0 L76.0 28.0" stroke="#F5EFE2" stroke-opacity="0.55" stroke-width="1.6"/><path d="M82.8 34.4 L83.2 31.5" stroke="#F5EFE2" stroke-opacity="0.22" stroke-width="1"/><path d="M89.5 35.8 L90.2 32.9" stroke="#F5EFE2" stroke-opacity="0.22" stroke-width="1"/><path d="M95.9 38.0 L97.0 35.2" stroke="#F5EFE2" stroke-opacity="0.22" stroke-width="1"/><path d="M102.0 41.0 L103.5 38.4" stroke="#F5EFE2" stroke-opacity="0.22" stroke-width="1"/><path d="M107.7 44.7 L109.5 42.4" stroke="#F5EFE2" stroke-opacity="0.22" stroke-width="1"/><path d="M112.8 49.2 L117.0 45.0" stroke="#F5EFE2" stroke-opacity="0.55" stroke-width="1.6"/><path d="M117.3 54.3 L119.6 52.5" stroke="#F5EFE2" stroke-opacity="0.22" stroke-width="1"/><path d="M121.0 60.0 L123.6 58.5" stroke="#F5EFE2" stroke-opacity="0.22" stroke-width="1"/><path d="M124.0 66.1 L126.8 65.0" stroke="#F5EFE2" stroke-opacity="0.22" stroke-width="1"/><path d="M126.2 72.5 L129.1 71.8" stroke="#F5EFE2" stroke-opacity="0.22" stroke-width="1"/><path d="M127.6 79.2 L130.5 78.8" stroke="#F5EFE2" stroke-opacity="0.22" stroke-width="1"/><path d="M128.0 86.0 L134.0 86.0" stroke="#F5EFE2" stroke-opacity="0.55" stroke-width="1.6"/><path d="M127.6 92.8 L130.5 93.2" stroke="#F5EFE2" stroke-opacity="0.22" stroke-width="1"/><path d="M126.2 99.5 L129.1 100.2" stroke="#F5EFE2" stroke-opacity="0.22" stroke-width="1"/><path d="M124.0 105.9 L126.8 107.0" stroke="#F5EFE2" stroke-opacity="0.22" stroke-width="1"/><path d="M121.0 112.0 L123.6 113.5" stroke="#F5EFE2" stroke-opacity="0.22" stroke-width="1"/><path d="M117.3 117.7 L119.6 119.5" stroke="#F5EFE2" stroke-opacity="0.22" stroke-width="1"/><path d="M112.8 122.8 L117.0 127.0" stroke="#F5EFE2" stroke-opacity="0.55" stroke-width="1.6"/><path d="M107.7 127.3 L109.5 129.6" stroke="#F5EFE2" stroke-opacity="0.22" stroke-width="1"/><path d="M102.0 131.0 L103.5 133.6" stroke="#F5EFE2" stroke-opacity="0.22" stroke-width="1"/><path d="M95.9 134.0 L97.0 136.8" stroke="#F5EFE2" stroke-opacity="0.22" stroke-width="1"/><path d="M89.5 136.2 L90.2 139.1" stroke="#F5EFE2" stroke-opacity="0.22" stroke-width="1"/><path d="M82.8 137.6 L83.2 140.5" stroke="#F5EFE2" stroke-opacity="0.22" stroke-width="1"/><path d="M76.0 138.0 L76.0 144.0" stroke="#F5EFE2" stroke-opacity="0.55" stroke-width="1.6"/><path d="M69.2 137.6 L68.8 140.5" stroke="#F5EFE2" stroke-opacity="0.22" stroke-width="1"/><path d="M62.5 136.2 L61.8 139.1" stroke="#F5EFE2" stroke-opacity="0.22" stroke-width="1"/><path d="M56.1 134.0 L55.0 136.8" stroke="#F5EFE2" stroke-opacity="0.22" stroke-width="1"/><path d="M50.0 131.0 L48.5 133.6" stroke="#F5EFE2" stroke-opacity="0.22" stroke-width="1"/><path d="M44.3 127.3 L42.5 129.6" stroke="#F5EFE2" stroke-opacity="0.22" stroke-width="1"/><path d="M39.2 122.8 L35.0 127.0" stroke="#F5EFE2" stroke-opacity="0.55" stroke-width="1.6"/><path d="M34.7 117.7 L32.4 119.5" stroke="#F5EFE2" stroke-opacity="0.22" stroke-width="1"/><path d="M31.0 112.0 L28.4 113.5" stroke="#F5EFE2" stroke-opacity="0.22" stroke-width="1"/><path d="M28.0 105.9 L25.2 107.0" stroke="#F5EFE2" stroke-opacity="0.22" stroke-width="1"/><path d="M25.8 99.5 L22.9 100.2" stroke="#F5EFE2" stroke-opacity="0.22" stroke-width="1"/><path d="M24.4 92.8 L21.5 93.2" stroke="#F5EFE2" stroke-opacity="0.22" stroke-width="1"/><path d="M24.0 86.0 L18.0 86.0" stroke="#F5EFE2" stroke-opacity="0.55" stroke-width="1.6"/><path d="M24.4 79.2 L21.5 78.8" stroke="#F5EFE2" stroke-opacity="0.22" stroke-width="1"/><path d="M25.8 72.5 L22.9 71.8" stroke="#F5EFE2" stroke-opacity="0.22" stroke-width="1"/><path d="M28.0 66.1 L25.2 65.0" stroke="#F5EFE2" stroke-opacity="0.22" stroke-width="1"/><path d="M31.0 60.0 L28.4 58.5" stroke="#F5EFE2" stroke-opacity="0.22" stroke-width="1"/><path d="M34.7 54.3 L32.4 52.5" stroke="#F5EFE2" stroke-opacity="0.22" stroke-width="1"/><path d="M39.2 49.2 L35.0 45.0" stroke="#F5EFE2" stroke-opacity="0.55" stroke-width="1.6"/><path d="M44.3 44.7 L42.5 42.4" stroke="#F5EFE2" stroke-opacity="0.22" stroke-width="1"/><path d="M50.0 41.0 L48.5 38.4" stroke="#F5EFE2" stroke-opacity="0.22" stroke-width="1"/><path d="M56.1 38.0 L55.0 35.2" stroke="#F5EFE2" stroke-opacity="0.22" stroke-width="1"/><path d="M62.5 35.8 L61.8 32.9" stroke="#F5EFE2" stroke-opacity="0.22" stroke-width="1"/><path d="M69.2 34.4 L68.8 31.5" stroke="#F5EFE2" stroke-opacity="0.22" stroke-width="1"/><path d="M23.2 55.5 A61 61 0 0 1 128.8 55.5" fill="none" stroke="#F2A33C" stroke-opacity=".55" stroke-width="1.6" stroke-dasharray="1 3"/><path d="M12 25 L12 12 L25 12" fill="none" stroke="#F2A33C" stroke-opacity=".7" stroke-width="2"/><path d="M140 25 L140 12 L127 12" fill="none" stroke="#F2A33C" stroke-opacity=".7" stroke-width="2"/><path d="M12 151 L12 164 L25 164" fill="none" stroke="#F2A33C" stroke-opacity=".7" stroke-width="2"/><path d="M140 151 L140 164 L127 164" fill="none" stroke="#F2A33C" stroke-opacity=".7" stroke-width="2"/><g filter="url(#sh)"><g transform="translate(29.0 39.0) scale(0.94)" ><path d="M89.8 0.0 L91.9 0.0 L91.9 1.7 L89.0 5.0 L89.8 5.8 L89.8 7.5 L86.5 10.0 L87.7 10.4 L87.7 12.1 L79.8 16.2 L82.3 16.7 L82.3 18.3 L71.9 24.2 L76.0 24.2 L76.0 25.8 L72.3 27.1 L73.1 27.9 L75.2 27.9 L75.2 30.4 L71.0 30.4 L72.3 34.6 L71.9 43.3 L69.0 50.0 L62.3 57.1 L61.5 59.2 L59.8 59.2 L58.1 53.8 L58.1 43.8 L60.6 40.8 L58.5 37.1 L56.5 35.0 L54.0 33.8 L45.6 40.4 L43.5 40.4 L30.2 33.3 L30.2 22.9 L34.8 19.2 L42.7 15.8 L50.2 15.4 L54.4 16.2 L59.0 18.3 L66.0 24.2 L67.3 22.9 L68.1 20.4 L68.5 13.8 Z M22.3 16.2 L24.0 16.2 L24.4 17.5 L28.1 20.8 L28.1 34.6 L31.9 37.9 L40.2 42.9 L40.2 45.0 L36.5 48.3 L30.6 47.1 L18.1 41.7 L19.0 27.9 Z M51.9 38.8 L54.0 38.8 L55.6 40.4 L55.6 43.8 L37.3 66.2 L36.9 70.0 L34.4 70.0 L19.8 62.1 L19.8 60.4 L28.5 59.2 L32.7 57.1 Z M16.5 44.6 L19.0 44.6 L27.7 48.3 L29.4 50.8 L29.4 53.3 L8.1 55.8 L8.1 54.2 L14.4 47.9 Z M53.5 49.6 L55.2 49.6 L55.2 55.8 L57.3 62.1 L60.2 65.0 L62.3 65.4 L64.0 63.8 L65.2 60.4 L66.0 59.6 L67.7 59.6 L68.1 63.3 L70.6 65.8 L70.6 67.5 L66.0 70.0 L63.5 72.5 L62.7 73.8 L62.7 76.2 L48.5 81.2 L36.5 87.1 L24.4 95.4 L19.4 100.0 L17.7 100.0 L17.7 98.3 L22.7 89.6 L22.7 87.9 L24.4 87.1 L29.4 81.2 L31.5 74.6 L32.3 73.8 L39.8 74.6 L45.2 72.5 L44.8 71.7 L41.5 70.0 L40.6 68.8 L40.6 66.2 Z M56.0 83.3 L57.7 83.3 L57.7 85.0 L54.8 87.5 L49.8 88.3 L39.8 92.1 L38.1 92.1 L38.1 90.4 L40.6 89.2 Z" fill="url(#emb)" fill-rule="evenodd"/></g></g><rect width="152" height="176" fill="url(#scan)" opacity=".16"/></g><rect x="4" y="4" width="144" height="168" rx="14" fill="none" stroke="#F5EFE2" stroke-opacity=".55" stroke-width="3"/><rect x="1.5" y="1.5" width="149" height="173" rx="16.5" fill="none" stroke="#000" stroke-opacity=".7" stroke-width="2.5"/></svg>